<?xml version="1.0" encoding="UTF-8"?>
<!DOCTYPE svg PUBLIC "-//W3C//DTD SVG 1.1//EN" "http://www.w3.org/Graphics/SVG/1.1/DTD/svg11.dtd">
<svg xmlns="http://www.w3.org/2000/svg" version="1.1" width="662px" height="377px" style="shape-rendering:geometricPrecision; text-rendering:geometricPrecision; image-rendering:optimizeQuality; fill-rule:evenodd; clip-rule:evenodd" xmlns:xlink="http://www.w3.org/1999/xlink">
<g><path style="opacity:0.924" fill="#fcfcfa" d="M 335.5,35.5 C 351.837,35.3334 368.17,35.5001 384.5,36C 387.424,36.9876 390.424,37.6543 393.5,38C 406.507,50.6729 419.84,63.0062 433.5,75C 444.631,77.3158 454.464,82.1491 463,89.5C 464.503,100.157 464.337,110.824 462.5,121.5C 463.151,152.642 463.651,183.976 464,215.5C 467.139,239.398 470.639,263.231 474.5,287C 473.571,303.52 467.905,318.186 457.5,331C 436.78,346.183 413.446,353.683 387.5,353.5C 372.825,352.839 358.158,352.005 343.5,351C 335.878,347.604 328.378,344.104 321,340.5C 305.617,345.188 289.951,348.188 274,349.5C 257.199,349.561 240.699,347.394 224.5,343C 197.234,331.662 182.901,311.162 181.5,281.5C 186.712,250.201 194.379,219.534 204.5,189.5C 200.505,175.187 196.672,160.853 193,146.5C 192.333,135.167 192.333,123.833 193,112.5C 194.847,106.108 196.847,99.7749 199,93.5C 208.072,75.7756 222.572,65.9423 242.5,64C 250.524,63.5583 258.524,63.5583 266.5,64C 280.828,51.0442 297.495,42.3776 316.5,38C 323.056,37.7661 329.389,36.9328 335.5,35.5 Z"/></g>
<g><path style="opacity:1" fill="#141413" d="M 314.5,330.5 C 314.137,332.777 313.137,333.444 311.5,332.5C 309.547,333.761 307.547,334.927 305.5,336C 281.627,341.73 257.96,340.73 234.5,333C 213.343,324.84 200.51,309.673 196,287.5C 195.244,277.464 195.577,267.464 197,257.5C 202.931,233.775 209.764,210.275 217.5,187C 210.984,172.411 206.484,157.245 204,141.5C 201.847,120.317 207.514,101.651 221,85.5C 230.704,76.9848 242.038,71.9848 255,70.5C 261.203,71.4842 267.37,72.3176 273.5,73C 300.65,49.2162 332.316,39.8829 368.5,45C 381.671,39.7579 391.005,43.5912 396.5,56.5C 408.388,63.722 418.722,72.722 427.5,83.5C 433.138,84.3299 438.804,84.8299 444.5,85C 454.398,89.3399 458.231,96.8399 456,107.5C 454.747,113.09 451.581,117.257 446.5,120C 449.801,126.365 451.634,133.198 452,140.5C 452.208,146.551 452.708,152.551 453.5,158.5C 452.652,166.956 452.318,175.456 452.5,184C 453.396,196.145 454.229,208.311 455,220.5C 457.666,236.498 460.333,252.498 463,268.5C 467.934,300.477 455.767,322.977 426.5,336C 396.212,346.155 366.545,346.821 337.5,338C 331.33,335.75 325.997,332.25 321.5,327.5C 319.709,328.924 317.875,330.258 316,331.5C 315.617,330.944 315.117,330.611 314.5,330.5 Z"/></g>
<g><path style="opacity:1" fill="#d5dfdc" d="M 206.5,307.5 C 216.813,312.238 227.313,316.571 238,320.5C 238.333,320.167 238.667,319.833 239,319.5C 239.772,320.849 240.939,321.682 242.5,322C 253.099,324.178 263.932,326.011 275,327.5C 279.337,326.175 284.004,326.175 289,327.5C 290.333,326.833 291.667,326.167 293,325.5C 300.468,325.604 307.968,323.937 315.5,320.5C 316.183,320.863 316.85,321.196 317.5,321.5C 318.29,322.401 319.29,323.068 320.5,323.5C 320.649,324.552 320.483,325.552 320,326.5C 317.833,327.488 316,328.821 314.5,330.5C 286.753,340.078 259.087,339.578 231.5,329C 223.425,325.295 216.425,320.129 210.5,313.5C 209.019,311.481 207.686,309.481 206.5,307.5 Z"/></g>
<g><path style="opacity:1" fill="#d4dfdb" d="M 449.5,90.5 C 455.488,97.3987 455.988,104.732 451,112.5C 448.472,115.417 445.972,117.583 443.5,119C 446.531,124.764 448.364,130.931 449,137.5C 450.104,163.823 451.104,190.157 452,216.5C 455.004,233.838 458.004,251.172 461,268.5C 465.467,294.844 456.633,315.01 434.5,329C 420.097,336.355 404.764,340.521 388.5,341.5C 369.261,343.128 350.595,340.295 332.5,333C 328.32,330.313 324.654,327.146 321.5,323.5C 323.246,322.782 323.912,321.782 323.5,320.5C 324.167,321.5 324.833,322.5 325.5,323.5C 334.27,326.497 343.27,328.663 352.5,330C 357.025,330.613 361.191,330.446 365,329.5C 367.607,330.27 370.273,330.937 373,331.5C 374.452,329.175 376.119,329.175 378,331.5C 378.85,330.576 379.85,330.576 381,331.5C 381.945,331.095 382.612,330.428 383,329.5C 391.361,330.545 399.861,329.712 408.5,327C 410.061,326.682 411.228,325.849 412,324.5C 416.538,325.055 420.872,324.055 425,321.5C 425.333,321.833 425.667,322.167 426,322.5C 430.582,319.124 435.415,316.124 440.5,313.5C 445.46,309.242 448.96,303.575 451,296.5C 451.667,288.833 451.667,281.167 451,273.5C 449.276,262.384 447.276,251.717 445,241.5C 444.89,239.152 443.723,237.652 441.5,237C 442.658,235.991 443.325,234.658 443.5,233C 442.651,227.746 441.318,222.746 439.5,218C 443.29,186.158 441.956,154.491 435.5,123C 435.529,118.099 437.863,114.932 442.5,113.5C 443.806,112.088 444.64,110.421 445,108.5C 446.147,109.458 447.147,109.125 448,107.5C 448.927,103.987 449.761,100.487 450.5,97C 448.176,95.1755 447.843,93.0088 449.5,90.5 Z"/></g>
<g><path style="opacity:1" fill="#f9f8f7" d="M 289.5,64.5 C 288.65,66.4944 288.15,68.4944 288,70.5C 291.744,67.7884 292.244,68.2884 289.5,72C 290.056,72.3826 290.389,72.8826 290.5,73.5C 284.38,74.0614 281.88,77.3947 283,83.5C 284.584,84.8613 286.418,85.528 288.5,85.5C 286.069,86.7409 286.069,87.9076 288.5,89C 287.069,89.4652 285.903,90.2986 285,91.5C 283.494,89.9347 281.994,89.6014 280.5,90.5C 275.575,87.9726 270.408,85.9726 265,84.5C 259.216,86.3966 257.549,90.0632 260,95.5C 269.045,106.179 280.545,111.679 294.5,112C 296.124,110.883 297.124,109.383 297.5,107.5C 296.353,104.717 295.02,102.05 293.5,99.5C 293.721,98.2652 294.388,97.2652 295.5,96.5C 294.515,94.9017 294.349,93.235 295,91.5C 298.73,93.5226 302.563,95.3559 306.5,97C 306.167,97.3333 305.833,97.6667 305.5,98C 306.646,98.6449 307.646,99.4783 308.5,100.5C 309.9,98.6041 311.733,97.2707 314,96.5C 315.762,96.9444 315.595,97.4444 313.5,98C 314.766,98.3095 315.933,98.8095 317,99.5C 318.873,98.9109 320.54,99.5776 322,101.5C 322.308,100.692 322.808,100.025 323.5,99.5C 323.683,101.742 323.683,103.909 323.5,106C 321.381,109.377 319.881,112.877 319,116.5C 318.383,115.551 318.549,114.718 319.5,114C 318.256,113.544 317.423,114.044 317,115.5C 314.266,114.638 314.099,113.805 316.5,113C 312.22,108.523 307.72,108.356 303,112.5C 302.333,113.833 301.667,115.167 301,116.5C 300.667,115.5 300.333,114.5 300,113.5C 299.691,114.766 299.191,115.933 298.5,117C 301.623,118.949 302.123,121.115 300,123.5C 299.261,122.426 298.261,121.759 297,121.5C 295.832,122.509 294.665,123.509 293.5,124.5C 293.847,122.86 293.347,121.193 292,119.5C 291.333,120.833 290.667,120.833 290,119.5C 289.439,121.725 288.439,123.725 287,125.5C 286.667,124.833 286.333,124.167 286,123.5C 285.689,125.556 285.189,127.556 284.5,129.5C 286.441,131.834 288.107,134.334 289.5,137C 288.284,138.74 286.618,139.74 284.5,140C 287.032,140.612 287.865,142.112 287,144.5C 285.116,142.424 282.949,142.09 280.5,143.5C 283.435,144.943 286.435,146.443 289.5,148C 287.47,149.896 285.803,152.063 284.5,154.5C 282.415,153.353 280.915,154.02 280,156.5C 279.282,155.549 278.449,155.383 277.5,156C 278.078,157.417 279.078,158.25 280.5,158.5C 278.781,160.544 277.114,162.544 275.5,164.5C 270.065,163.38 264.565,162.714 259,162.5C 254.287,162.279 249.787,163.112 245.5,165C 255.474,164.312 265.474,164.479 275.5,165.5C 275.833,165.5 276.167,165.5 276.5,165.5C 278.684,167.585 281.351,168.585 284.5,168.5C 285.911,170.539 287.911,171.539 290.5,171.5C 291.508,173.339 293.008,174.672 295,175.5C 295.456,174.256 294.956,173.423 293.5,173C 297.694,171.85 299.694,169.016 299.5,164.5C 299,162.5 298.5,160.5 298,158.5C 296.583,157.922 295.75,156.922 295.5,155.5C 297.972,154.065 299.638,154.899 300.5,158C 303.312,157.171 305.146,158.338 306,161.5C 306.914,160.346 307.747,160.513 308.5,162C 306.209,163.877 304.209,163.71 302.5,161.5C 300.436,163.433 300.436,165.6 302.5,168C 300.701,171.432 301.701,173.599 305.5,174.5C 303.045,176.632 301.379,179.299 300.5,182.5C 300.532,184.489 301.365,186.489 303,188.5C 303.308,187.692 303.808,187.025 304.5,186.5C 305.861,188.028 307.028,189.695 308,191.5C 308.333,190.833 308.667,190.167 309,189.5C 312.155,194.358 315.822,195.358 320,192.5C 321.915,199.65 325.081,199.983 329.5,193.5C 329.833,194.167 330.167,194.833 330.5,195.5C 331.517,192.972 332.684,192.972 334,195.5C 335.016,194.366 335.683,194.699 336,196.5C 336.333,196.167 336.667,195.833 337,195.5C 338.171,196.893 339.671,197.727 341.5,198C 339.564,198.813 337.564,199.313 335.5,199.5C 335.5,200.833 335.5,202.167 335.5,203.5C 332.86,203.954 330.527,205.121 328.5,207C 329.167,208 329.833,209 330.5,210C 327.813,210.537 325.313,210.037 323,208.5C 320.95,211.964 318.116,213.464 314.5,213C 311.113,217.293 308.113,221.293 305.5,225C 306.328,225.915 307.328,226.581 308.5,227C 307.185,228.395 307.519,229.395 309.5,230C 308.833,231.333 308.167,232.667 307.5,234C 308.358,235.788 309.358,237.622 310.5,239.5C 309.975,240.192 309.308,240.692 308.5,241C 309.471,242.204 310.471,242.704 311.5,242.5C 308.202,245.644 307.869,248.977 310.5,252.5C 309.833,253.167 309.167,253.833 308.5,254.5C 310.4,255.066 311.733,256.733 312.5,259.5C 312.246,261.417 311.246,262.751 309.5,263.5C 307.302,263.409 306.969,264.075 308.5,265.5C 307.065,266.509 306.231,267.843 306,269.5C 305.692,268.692 305.192,268.025 304.5,267.5C 303.355,268.776 303.355,270.109 304.5,271.5C 303.311,272.429 301.978,272.762 300.5,272.5C 300.56,276.327 299.393,276.994 297,274.5C 296.558,276.679 295.558,277.345 294,276.5C 293.293,274.919 292.46,273.419 291.5,272C 292.449,271.383 293.282,271.549 294,272.5C 294.456,271.256 293.956,270.423 292.5,270C 296.378,265.239 295.545,263.739 290,265.5C 289.167,264 288,262.833 286.5,262C 288.044,261.71 289.377,261.044 290.5,260C 289.402,259.23 289.402,258.397 290.5,257.5C 295.694,257.411 295.694,256.745 290.5,255.5C 289.584,255.543 288.917,255.876 288.5,256.5C 287.833,256.5 287.5,256.167 287.5,255.5C 285.321,254.323 282.987,253.323 280.5,252.5C 281.744,249.011 281.078,245.844 278.5,243C 279.723,240.999 281.223,240.165 283,240.5C 283.265,238.837 282.765,237.337 281.5,236C 282.833,235 284.167,234 285.5,233C 283.056,232.196 281.222,230.696 280,228.5C 279.577,229.956 278.744,230.456 277.5,230C 278.167,228.667 279.167,227.667 280.5,227C 279.833,226.667 279.167,226.333 278.5,226C 280.844,225.163 282.844,223.829 284.5,222C 278.805,219.146 277.305,214.979 280,209.5C 278.23,210.063 276.23,211.063 274,212.5C 272.059,210.684 271.392,208.684 272,206.5C 271.085,207.328 270.419,208.328 270,209.5C 269.581,208.328 268.915,207.328 268,206.5C 268.497,208.198 268.33,209.865 267.5,211.5C 268.242,213.35 269.242,214.016 270.5,213.5C 269.315,214.853 267.981,216.02 266.5,217C 269.241,217.477 271.741,218.977 274,221.5C 275.974,218.882 277.807,219.048 279.5,222C 276.969,223.489 274.802,225.322 273,227.5C 272.331,224.972 271.498,224.972 270.5,227.5C 268.577,228.308 266.577,228.808 264.5,229C 265.15,230.609 264.65,232.109 263,233.5C 262,232.167 261,232.167 260,233.5C 259.167,232.667 258.333,231.833 257.5,231C 262.023,229.985 262.69,227.819 259.5,224.5C 260.376,223.749 261.376,223.249 262.5,223C 261.159,221.705 259.826,221.205 258.5,221.5C 259.5,220.667 260.5,219.833 261.5,219C 259.884,218.385 258.551,217.385 257.5,216C 257.5,215 257.5,214 257.5,213C 255.671,212.727 254.171,211.893 253,210.5C 251.887,211.76 251.72,212.927 252.5,214C 249.456,214.359 249.122,215.026 251.5,216C 250.833,216.333 250.167,216.667 249.5,217C 251.167,218 252.833,219 254.5,220C 253.21,222.292 251.543,224.292 249.5,226C 251.421,226.36 253.088,227.194 254.5,228.5C 253.572,229.768 253.405,231.101 254,232.5C 256.362,233.352 258.195,234.852 259.5,237C 256.535,239.089 253.701,238.922 251,236.5C 250.333,239.167 249.667,239.167 249,236.5C 246.347,237.579 243.847,239.579 241.5,242.5C 238.963,240.471 236.463,240.804 234,243.5C 233.667,243.167 233.333,242.833 233,242.5C 230.787,244.249 229.787,246.249 230,248.5C 229.667,247.833 229.333,247.167 229,246.5C 226.511,249.228 224.011,251.228 221.5,252.5C 223.044,253.622 224.377,253.289 225.5,251.5C 227.303,253.205 227.969,255.038 227.5,257C 226.258,257.311 225.258,256.811 224.5,255.5C 223.276,256.766 221.943,257.933 220.5,259C 222.791,260.877 224.791,260.71 226.5,258.5C 229.317,259.095 231.65,260.428 233.5,262.5C 231.638,264.208 230.138,266.208 229,268.5C 228.311,267.643 227.478,266.977 226.5,266.5C 224.991,268.424 222.991,269.591 220.5,270C 218.925,272.605 217.758,275.438 217,278.5C 213.809,277.096 211.476,275.43 210,273.5C 209.508,274.549 209.674,275.549 210.5,276.5C 209.758,277.287 208.925,277.953 208,278.5C 206.256,277.964 204.423,277.63 202.5,277.5C 199.972,278.498 199.972,279.331 202.5,280C 201.12,281.324 200.786,282.657 201.5,284C 200.212,284.239 199.212,283.739 198.5,282.5C 197.722,274.846 197.888,266.846 199,258.5C 205.189,233.967 212.356,210.3 220.5,187.5C 209.992,167.128 205.492,145.462 207,122.5C 209.134,107.398 215.634,94.5651 226.5,84C 240.685,74.1445 255.852,71.6445 272,76.5C 277.703,72.2941 283.537,68.2941 289.5,64.5 Z"/></g>
<g><path style="opacity:1" fill="#070503" d="M 220.5,187.5 C 222.085,188.002 222.585,189.002 222,190.5C 220.961,189.756 220.461,188.756 220.5,187.5 Z"/></g>
<g><path style="opacity:1" fill="#1c1715" d="M 284.5,168.5 C 286.97,168.654 288.97,169.654 290.5,171.5C 287.911,171.539 285.911,170.539 284.5,168.5 Z"/></g>
<g><path style="opacity:1" fill="#1b100f" d="M 276.5,165.5 C 278.703,165.604 280.703,166.27 282.5,167.5C 283.492,167.328 284.158,167.662 284.5,168.5C 281.351,168.585 278.684,167.585 276.5,165.5 Z"/></g>
<g><path style="opacity:1" fill="#967879" d="M 295.5,155.5 C 295.75,156.922 296.583,157.922 298,158.5C 298.5,160.5 299,162.5 299.5,164.5C 299.694,169.016 297.694,171.85 293.5,173C 294.956,173.423 295.456,174.256 295,175.5C 293.008,174.672 291.508,173.339 290.5,171.5C 292.167,171.5 293.833,171.5 295.5,171.5C 296.826,168.999 297.326,166.332 297,163.5C 294.567,158.229 290.4,156.396 284.5,158C 279.963,160.318 279.296,163.485 282.5,167.5C 280.703,166.27 278.703,165.604 276.5,165.5C 276.167,165.5 275.833,165.5 275.5,165.5C 275.5,165.167 275.5,164.833 275.5,164.5C 277.114,162.544 278.781,160.544 280.5,158.5C 284.949,154.81 289.949,153.81 295.5,155.5 Z"/></g>
<g><path style="opacity:1" fill="#1c1b1a" d="M 275.5,164.5 C 275.5,164.833 275.5,165.167 275.5,165.5C 265.474,164.479 255.474,164.312 245.5,165C 249.787,163.112 254.287,162.279 259,162.5C 264.565,162.714 270.065,163.38 275.5,164.5 Z"/></g>
<g><path style="opacity:1" fill="#c28c8f" d="M 290.5,171.5 C 288.97,169.654 286.97,168.654 284.5,168.5C 284.158,167.662 283.492,167.328 282.5,167.5C 279.296,163.485 279.963,160.318 284.5,158C 290.4,156.396 294.567,158.229 297,163.5C 297.326,166.332 296.826,168.999 295.5,171.5C 293.833,171.5 292.167,171.5 290.5,171.5 Z"/></g>
<g><path style="opacity:1" fill="#0a0a09" d="M 280.5,90.5 C 285.132,93.1427 289.465,96.1427 293.5,99.5C 295.02,102.05 296.353,104.717 297.5,107.5C 297.124,109.383 296.124,110.883 294.5,112C 280.545,111.679 269.045,106.179 260,95.5C 257.549,90.0632 259.216,86.3966 265,84.5C 270.408,85.9726 275.575,87.9726 280.5,90.5 Z"/></g>
<g><path style="opacity:1" fill="#0d0c0b" d="M 290.5,73.5 C 294.075,76.7514 294.408,80.4181 291.5,84.5C 290.583,85.1272 289.583,85.4606 288.5,85.5C 286.418,85.528 284.584,84.8613 283,83.5C 281.88,77.3947 284.38,74.0614 290.5,73.5 Z"/></g>
<g><path style="opacity:1" fill="#f9f9f7" d="M 384.5,53.5 C 400.801,61.1745 414.801,72.0078 426.5,86C 426.355,86.772 426.022,87.4387 425.5,88C 429.447,87.7471 433.447,87.2471 437.5,86.5C 441.952,86.7145 445.952,88.0479 449.5,90.5C 447.843,93.0088 448.176,95.1755 450.5,97C 449.761,100.487 448.927,103.987 448,107.5C 447.147,109.125 446.147,109.458 445,108.5C 444.64,110.421 443.806,112.088 442.5,113.5C 437.863,114.932 435.529,118.099 435.5,123C 441.956,154.491 443.29,186.158 439.5,218C 441.318,222.746 442.651,227.746 443.5,233C 443.325,234.658 442.658,235.991 441.5,237C 443.723,237.652 444.89,239.152 445,241.5C 447.276,251.717 449.276,262.384 451,273.5C 451.667,281.167 451.667,288.833 451,296.5C 448.96,303.575 445.46,309.242 440.5,313.5C 435.415,316.124 430.582,319.124 426,322.5C 425.667,322.167 425.333,321.833 425,321.5C 420.872,324.055 416.538,325.055 412,324.5C 411.228,325.849 410.061,326.682 408.5,327C 399.861,329.712 391.361,330.545 383,329.5C 382.612,330.428 381.945,331.095 381,331.5C 379.85,330.576 378.85,330.576 378,331.5C 376.119,329.175 374.452,329.175 373,331.5C 370.273,330.937 367.607,330.27 365,329.5C 361.191,330.446 357.025,330.613 352.5,330C 343.27,328.663 334.27,326.497 325.5,323.5C 324.833,322.5 324.167,321.5 323.5,320.5C 323.912,321.782 323.246,322.782 321.5,323.5C 321.167,323.5 320.833,323.5 320.5,323.5C 320.262,321.596 319.262,320.262 317.5,319.5C 317.5,320.167 317.5,320.833 317.5,321.5C 316.85,321.196 316.183,320.863 315.5,320.5C 307.968,323.937 300.468,325.604 293,325.5C 291.667,326.167 290.333,326.833 289,327.5C 284.004,326.175 279.337,326.175 275,327.5C 263.932,326.011 253.099,324.178 242.5,322C 240.939,321.682 239.772,320.849 239,319.5C 238.667,319.833 238.333,320.167 238,320.5C 227.313,316.571 216.813,312.238 206.5,307.5C 202.959,302.32 200.459,296.653 199,290.5C 198.503,287.854 198.336,285.187 198.5,282.5C 199.212,283.739 200.212,284.239 201.5,284C 200.786,282.657 201.12,281.324 202.5,280C 199.972,279.331 199.972,278.498 202.5,277.5C 204.423,277.63 206.256,277.964 208,278.5C 208.925,277.953 209.758,277.287 210.5,276.5C 209.674,275.549 209.508,274.549 210,273.5C 211.476,275.43 213.809,277.096 217,278.5C 217.758,275.438 218.925,272.605 220.5,270C 222.991,269.591 224.991,268.424 226.5,266.5C 227.478,266.977 228.311,267.643 229,268.5C 230.138,266.208 231.638,264.208 233.5,262.5C 231.65,260.428 229.317,259.095 226.5,258.5C 224.791,260.71 222.791,260.877 220.5,259C 221.943,257.933 223.276,256.766 224.5,255.5C 225.258,256.811 226.258,257.311 227.5,257C 227.969,255.038 227.303,253.205 225.5,251.5C 224.377,253.289 223.044,253.622 221.5,252.5C 224.011,251.228 226.511,249.228 229,246.5C 229.333,247.167 229.667,247.833 230,248.5C 229.787,246.249 230.787,244.249 233,242.5C 233.333,242.833 233.667,243.167 234,243.5C 236.463,240.804 238.963,240.471 241.5,242.5C 243.847,239.579 246.347,237.579 249,236.5C 249.667,239.167 250.333,239.167 251,236.5C 253.701,238.922 256.535,239.089 259.5,237C 258.195,234.852 256.362,233.352 254,232.5C 253.405,231.101 253.572,229.768 254.5,228.5C 253.088,227.194 251.421,226.36 249.5,226C 251.543,224.292 253.21,222.292 254.5,220C 252.833,219 251.167,218 249.5,217C 250.167,216.667 250.833,216.333 251.5,216C 249.122,215.026 249.456,214.359 252.5,214C 251.72,212.927 251.887,211.76 253,210.5C 254.171,211.893 255.671,212.727 257.5,213C 257.5,214 257.5,215 257.5,216C 258.551,217.385 259.884,218.385 261.5,219C 260.5,219.833 259.5,220.667 258.5,221.5C 259.826,221.205 261.159,221.705 262.5,223C 261.376,223.249 260.376,223.749 259.5,224.5C 262.69,227.819 262.023,229.985 257.5,231C 258.333,231.833 259.167,232.667 260,233.5C 261,232.167 262,232.167 263,233.5C 264.65,232.109 265.15,230.609 264.5,229C 266.577,228.808 268.577,228.308 270.5,227.5C 271.498,224.972 272.331,224.972 273,227.5C 274.802,225.322 276.969,223.489 279.5,222C 277.807,219.048 275.974,218.882 274,221.5C 271.741,218.977 269.241,217.477 266.5,217C 267.981,216.02 269.315,214.853 270.5,213.5C 269.242,214.016 268.242,213.35 267.5,211.5C 268.33,209.865 268.497,208.198 268,206.5C 268.915,207.328 269.581,208.328 270,209.5C 270.419,208.328 271.085,207.328 272,206.5C 271.392,208.684 272.059,210.684 274,212.5C 276.23,211.063 278.23,210.063 280,209.5C 277.305,214.979 278.805,219.146 284.5,222C 282.844,223.829 280.844,225.163 278.5,226C 279.167,226.333 279.833,226.667 280.5,227C 279.167,227.667 278.167,228.667 277.5,230C 278.744,230.456 279.577,229.956 280,228.5C 281.222,230.696 283.056,232.196 285.5,233C 284.167,234 282.833,235 281.5,236C 282.765,237.337 283.265,238.837 283,240.5C 281.223,240.165 279.723,240.999 278.5,243C 281.078,245.844 281.744,249.011 280.5,252.5C 278.143,252.337 275.81,252.503 273.5,253C 278.126,254.152 282.793,254.985 287.5,255.5C 287.5,256.167 287.833,256.5 288.5,256.5C 289.492,256.328 290.158,256.662 290.5,257.5C 289.402,258.397 289.402,259.23 290.5,260C 289.377,261.044 288.044,261.71 286.5,262C 288,262.833 289.167,264 290,265.5C 295.545,263.739 296.378,265.239 292.5,270C 293.956,270.423 294.456,271.256 294,272.5C 293.282,271.549 292.449,271.383 291.5,272C 292.46,273.419 293.293,274.919 294,276.5C 295.558,277.345 296.558,276.679 297,274.5C 299.393,276.994 300.56,276.327 300.5,272.5C 301.978,272.762 303.311,272.429 304.5,271.5C 303.355,270.109 303.355,268.776 304.5,267.5C 305.192,268.025 305.692,268.692 306,269.5C 306.231,267.843 307.065,266.509 308.5,265.5C 312.11,266.847 312.443,266.18 309.5,263.5C 311.246,262.751 312.246,261.417 312.5,259.5C 311.733,256.733 310.4,255.066 308.5,254.5C 309.167,253.833 309.833,253.167 310.5,252.5C 307.869,248.977 308.202,245.644 311.5,242.5C 310.471,242.704 309.471,242.204 308.5,241C 309.308,240.692 309.975,240.192 310.5,239.5C 309.358,237.622 308.358,235.788 307.5,234C 308.167,232.667 308.833,231.333 309.5,230C 307.519,229.395 307.185,228.395 308.5,227C 307.328,226.581 306.328,225.915 305.5,225C 308.113,221.293 311.113,217.293 314.5,213C 318.116,213.464 320.95,211.964 323,208.5C 325.313,210.037 327.813,210.537 330.5,210C 329.833,209 329.167,208 328.5,207C 330.527,205.121 332.86,203.954 335.5,203.5C 335.5,202.167 335.5,200.833 335.5,199.5C 337.564,199.313 339.564,198.813 341.5,198C 339.671,197.727 338.171,196.893 337,195.5C 336.667,195.833 336.333,196.167 336,196.5C 335.683,194.699 335.016,194.366 334,195.5C 332.684,192.972 331.517,192.972 330.5,195.5C 330.167,194.833 329.833,194.167 329.5,193.5C 325.081,199.983 321.915,199.65 320,192.5C 315.822,195.358 312.155,194.358 309,189.5C 308.667,190.167 308.333,190.833 308,191.5C 307.028,189.695 305.861,188.028 304.5,186.5C 303.808,187.025 303.308,187.692 303,188.5C 301.365,186.489 300.532,184.489 300.5,182.5C 301.379,179.299 303.045,176.632 305.5,174.5C 301.701,173.599 300.701,171.432 302.5,168C 300.436,165.6 300.436,163.433 302.5,161.5C 304.209,163.71 306.209,163.877 308.5,162C 307.747,160.513 306.914,160.346 306,161.5C 305.146,158.338 303.312,157.171 300.5,158C 299.638,154.899 297.972,154.065 295.5,155.5C 289.949,153.81 284.949,154.81 280.5,158.5C 279.078,158.25 278.078,157.417 277.5,156C 278.449,155.383 279.282,155.549 280,156.5C 280.915,154.02 282.415,153.353 284.5,154.5C 285.803,152.063 287.47,149.896 289.5,148C 286.435,146.443 283.435,144.943 280.5,143.5C 282.949,142.09 285.116,142.424 287,144.5C 287.865,142.112 287.032,140.612 284.5,140C 286.618,139.74 288.284,138.74 289.5,137C 288.107,134.334 286.441,131.834 284.5,129.5C 285.189,127.556 285.689,125.556 286,123.5C 286.333,124.167 286.667,124.833 287,125.5C 288.439,123.725 289.439,121.725 290,119.5C 290.667,120.833 291.333,120.833 292,119.5C 293.347,121.193 293.847,122.86 293.5,124.5C 294.665,123.509 295.832,122.509 297,121.5C 298.261,121.759 299.261,122.426 300,123.5C 302.123,121.115 301.623,118.949 298.5,117C 299.191,115.933 299.691,114.766 300,113.5C 300.333,114.5 300.667,115.5 301,116.5C 301.667,115.167 302.333,113.833 303,112.5C 307.72,108.356 312.22,108.523 316.5,113C 314.099,113.805 314.266,114.638 317,115.5C 317.423,114.044 318.256,113.544 319.5,114C 318.549,114.718 318.383,115.551 319,116.5C 319.881,112.877 321.381,109.377 323.5,106C 323.683,103.909 323.683,101.742 323.5,99.5C 322.808,100.025 322.308,100.692 322,101.5C 320.54,99.5776 318.873,98.9109 317,99.5C 315.933,98.8095 314.766,98.3095 313.5,98C 315.595,97.4444 315.762,96.9444 314,96.5C 311.733,97.2707 309.9,98.6041 308.5,100.5C 307.646,99.4783 306.646,98.6449 305.5,98C 305.833,97.6667 306.167,97.3333 306.5,97C 302.563,95.3559 298.73,93.5226 295,91.5C 294.349,93.235 294.515,94.9017 295.5,96.5C 294.388,97.2652 293.721,98.2652 293.5,99.5C 289.465,96.1427 285.132,93.1427 280.5,90.5C 281.994,89.6014 283.494,89.9347 285,91.5C 285.903,90.2986 287.069,89.4652 288.5,89C 286.069,87.9076 286.069,86.7409 288.5,85.5C 289.583,85.4606 290.583,85.1272 291.5,84.5C 294.408,80.4181 294.075,76.7514 290.5,73.5C 290.389,72.8826 290.056,72.3826 289.5,72C 292.244,68.2884 291.744,67.7884 288,70.5C 288.15,68.4944 288.65,66.4944 289.5,64.5C 301.576,55.1615 315.909,49.6615 332.5,48C 343.219,47.8549 353.885,47.6883 364.5,47.5C 368.885,50.0216 373.552,51.1883 378.5,51C 375.352,49.3953 372.019,48.3953 368.5,48C 378.954,42.8853 387.288,45.2187 393.5,55C 393.333,55.5 393.167,56 393,56.5C 390.508,54.5029 387.675,53.5029 384.5,53.5 Z"/></g>
<g><path style="opacity:1" fill="#050706" d="M 317.5,319.5 C 319.262,320.262 320.262,321.596 320.5,323.5C 319.29,323.068 318.29,322.401 317.5,321.5C 317.5,320.833 317.5,320.167 317.5,319.5 Z"/></g>
<g><path style="opacity:1" fill="#0d0d0c" d="M 315.5,314.5 C 316.931,315.78 317.598,317.447 317.5,319.5C 315.787,318.365 315.12,316.698 315.5,314.5 Z"/></g>
<g><path style="opacity:1" fill="#161615" d="M 315.5,314.5 C 312.748,310.299 311.914,305.632 313,300.5C 313.92,300.93 314.753,301.264 315.5,301.5C 314.456,302.623 313.79,303.956 313.5,305.5C 314.47,308.437 315.137,311.437 315.5,314.5 Z"/></g>
<g><path style="opacity:1" fill="#151513" d="M 319.5,296.5 C 320.552,296.351 321.552,296.517 322.5,297C 320.919,297.707 319.419,298.54 318,299.5C 317.761,298.212 318.261,297.212 319.5,296.5 Z"/></g>
<g><path style="opacity:1" fill="#494948" d="M 326.5,294.5 C 331.563,294.769 331.397,295.435 326,296.5C 325.167,296.333 324.333,296.167 323.5,296C 324.737,295.768 325.737,295.268 326.5,294.5 Z"/></g>
<g><path style="opacity:1" fill="#080705" d="M 314.5,284.5 C 315.289,284.783 315.956,285.283 316.5,286C 314.539,289.215 313.373,292.715 313,296.5C 312.19,292.31 312.69,288.31 314.5,284.5 Z"/></g>
<g><path style="opacity:1" fill="#100f0d" d="M 319.5,282.5 C 320.239,282.369 320.906,282.536 321.5,283C 320.421,283.956 319.255,284.789 318,285.5C 317.761,284.212 318.261,283.212 319.5,282.5 Z"/></g>
<g><path style="opacity:1" fill="#1a1a18" d="M 325.5,280.5 C 331.906,280.649 331.739,281.315 325,282.5C 324.5,282.333 324,282.167 323.5,282C 324.416,281.722 325.082,281.222 325.5,280.5 Z"/></g>
<g><path style="opacity:1" fill="#1a1a19" d="M 319.5,274.5 C 320.167,274.5 320.833,274.5 321.5,274.5C 320.18,277.806 318.347,280.806 316,283.5C 315.333,282.5 315.333,281.5 316,280.5C 317.442,278.609 318.609,276.609 319.5,274.5 Z"/></g>
<g><path style="opacity:1" fill="#080705" d="M 324.5,271.5 C 324.144,273.19 323.144,274.19 321.5,274.5C 321.856,272.81 322.856,271.81 324.5,271.5 Z"/></g>
<g><path style="opacity:1" fill="#252523" d="M 317.5,271.5 C 318.906,271.973 319.573,272.973 319.5,274.5C 318.094,274.027 317.427,273.027 317.5,271.5 Z"/></g>
<g><path style="opacity:1" fill="#1b1a19" d="M 327.5,268.5 C 327.144,270.19 326.144,271.19 324.5,271.5C 324.5,269.5 325.5,268.5 327.5,268.5 Z"/></g>
<g><path style="opacity:1" fill="#545453" d="M 317.5,271.5 C 315.314,271.489 314.481,270.489 315,268.5C 316.045,269.373 316.878,270.373 317.5,271.5 Z"/></g>
<g><path style="opacity:1" fill="#191817" d="M 334.5,263.5 C 332.704,265.9 330.37,267.567 327.5,268.5C 329.296,266.1 331.63,264.433 334.5,263.5 Z"/></g>
<g><path style="opacity:1" fill="#151514" d="M 309.5,263.5 C 312.443,266.18 312.11,266.847 308.5,265.5C 306.969,264.075 307.302,263.409 309.5,263.5 Z"/></g>
<g><path style="opacity:1" fill="#595856" d="M 409.5,261.5 C 410.473,261.987 411.473,262.487 412.5,263C 410.843,263.725 409.843,263.225 409.5,261.5 Z"/></g>
<g><path style="opacity:1" fill="#171514" d="M 340.5,260.5 C 339.089,262.539 337.089,263.539 334.5,263.5C 336.03,261.654 338.03,260.654 340.5,260.5 Z"/></g>
<g><path style="opacity:1" fill="#1f1d1c" d="M 302.5,261.5 C 303.892,260.478 305.225,260.811 306.5,262.5C 306.333,262.833 306.167,263.167 306,263.5C 304.887,262.695 303.721,262.028 302.5,261.5 Z"/></g>
<g><path style="opacity:1" fill="#2a2928" d="M 398.5,258.5 C 400.923,257.562 403.256,258.062 405.5,260C 402.905,260.6 400.571,260.1 398.5,258.5 Z"/></g>
<g><path style="opacity:1" fill="#1d1c1b" d="M 340.5,260.5 C 343.142,258.52 346.142,257.686 349.5,258C 346.829,259.903 343.829,260.736 340.5,260.5 Z"/></g>
<g><path style="opacity:1" fill="#373634" d="M 295.5,258.5 C 297.666,257.371 299.666,257.871 301.5,260C 299.305,260.409 297.305,259.909 295.5,258.5 Z"/></g>
<g><path style="opacity:1" fill="#13100f" d="M 388.5,256.5 C 391.068,255.357 393.735,255.524 396.5,257C 393.843,257.175 391.176,257.008 388.5,256.5 Z"/></g>
<g><path style="opacity:1" fill="#292525" d="M 352.5,255.5 C 360.938,255.378 361.271,256.044 353.5,257.5C 352.5,257.333 351.5,257.167 350.5,257C 351.416,256.722 352.082,256.222 352.5,255.5 Z"/></g>
<g><path style="opacity:1" fill="#151513" d="M 288.5,256.5 C 288.917,255.876 289.584,255.543 290.5,255.5C 295.694,256.745 295.694,257.411 290.5,257.5C 290.158,256.662 289.492,256.328 288.5,256.5 Z"/></g>
<g><path style="opacity:1" fill="#151312" d="M 370.5,253.5 C 375.536,253.588 380.536,254.088 385.5,255C 377.5,255.667 369.5,255.667 361.5,255C 364.695,254.819 367.695,254.319 370.5,253.5 Z"/></g>
<g><path style="opacity:1" fill="#191817" d="M 280.5,252.5 C 282.987,253.323 285.321,254.323 287.5,255.5C 282.793,254.985 278.126,254.152 273.5,253C 275.81,252.503 278.143,252.337 280.5,252.5 Z"/></g>
<g><path style="opacity:1" fill="#131211" d="M 251.5,252.5 C 254.518,252.335 257.518,252.502 260.5,253C 256.181,253.905 251.848,254.238 247.5,254C 249.058,253.79 250.391,253.29 251.5,252.5 Z"/></g>
<g><path style="opacity:1" fill="#2a2a28" d="M 338.5,120.5 C 340.085,121.002 340.585,122.002 340,123.5C 338.961,122.756 338.461,121.756 338.5,120.5 Z"/></g>
<g><path style="opacity:1" fill="#0e0d0b" d="M 343.5,105.5 C 351.013,107.521 352.347,111.687 347.5,118C 345.5,118.667 343.5,118.667 341.5,118C 337.997,113.298 338.663,109.131 343.5,105.5 Z"/></g>
<g><path style="opacity:1" fill="#0a0906" d="M 384.5,53.5 C 382.692,53.5086 381.025,53.0086 379.5,52C 381.535,51.4014 383.201,51.9014 384.5,53.5 Z"/></g>
</svg>
