<?xml version="1.0" encoding="UTF-8"?>
<!DOCTYPE svg PUBLIC "-//W3C//DTD SVG 1.1//EN" "http://www.w3.org/Graphics/SVG/1.1/DTD/svg11.dtd">
<svg xmlns="http://www.w3.org/2000/svg" version="1.1" width="1080px" height="1080px" style="shape-rendering:geometricPrecision; text-rendering:geometricPrecision; image-rendering:optimizeQuality; fill-rule:evenodd; clip-rule:evenodd" xmlns:xlink="http://www.w3.org/1999/xlink">
<g><path style="opacity:1" fill="#242424" d="M -0.5,-0.5 C 179.5,-0.5 359.5,-0.5 539.5,-0.5C 539.5,226.5 539.5,453.5 539.5,680.5C 359.5,680.5 179.5,680.5 -0.5,680.5C -0.5,453.5 -0.5,226.5 -0.5,-0.5 Z"/></g>
<g><path style="opacity:1" fill="#fefefe" d="M 539.5,-0.5 C 719.5,-0.5 899.5,-0.5 1079.5,-0.5C 1079.5,226.5 1079.5,453.5 1079.5,680.5C 899.5,680.5 719.5,680.5 539.5,680.5C 539.5,453.5 539.5,226.5 539.5,-0.5 Z"/></g>
<g><path style="opacity:1" fill="#08e36b" d="M 320.5,61.5 C 321.994,62.3986 323.494,62.0653 325,60.5C 325.464,61.0944 325.631,61.7611 325.5,62.5C 320.913,65.6256 315.913,67.959 310.5,69.5C 298.696,66.3123 296.362,59.6456 303.5,49.5C 304.222,49.9175 304.722,50.5842 305,51.5C 309.16,43.4895 313.493,35.8229 318,28.5C 317.292,29.3805 316.458,30.0472 315.5,30.5C 317.299,26.4313 319.966,22.9313 323.5,20C 328.417,18.7887 331.417,20.622 332.5,25.5C 331.723,28.5336 330.389,31.2002 328.5,33.5C 327.28,33.1131 326.613,32.2798 326.5,31C 330.214,21.5029 328.714,20.3363 322,27.5C 314.959,37.583 308.959,48.2497 304,59.5C 302.516,63.5495 303.849,65.5495 308,65.5C 312.267,64.4666 316.433,63.1333 320.5,61.5 Z"/></g>
<g><path style="opacity:1" fill="#05f070" d="M 297.5,20.5 C 301.254,21.8276 302.421,24.4942 301,28.5C 295.802,40.7612 291.802,53.4279 289,66.5C 287.667,67.8333 286.333,67.8333 285,66.5C 285.787,55.019 288.621,44.019 293.5,33.5C 293.333,33.1667 293.167,32.8333 293,32.5C 292.101,34.3266 290.767,35.66 289,36.5C 287.72,36.3865 286.887,35.7199 286.5,34.5C 288.474,30.6921 291.308,27.6921 295,25.5C 296.094,23.9221 296.928,22.2554 297.5,20.5 Z"/></g>
<g><path style="opacity:1" fill="#05ec6f" d="M 469.5,45.5 C 470.117,45.6107 470.617,45.944 471,46.5C 473.118,45.7171 474.618,44.3838 475.5,42.5C 478.267,36.3851 480.767,30.0517 483,23.5C 485.476,21.9372 486.976,22.6038 487.5,25.5C 482.341,39.6428 477.341,53.8095 472.5,68C 470.527,68.5378 469.527,67.7044 469.5,65.5C 471.044,60.2046 472.377,54.8712 473.5,49.5C 473,49.1667 472.5,48.8333 472,48.5C 469.367,49.6556 466.7,50.6556 464,51.5C 462.536,50.541 461.703,49.2077 461.5,47.5C 464.95,38.5989 468.95,29.9322 473.5,21.5C 476.063,20.1886 477.73,21.0219 478.5,24C 474.953,30.9287 471.287,37.762 467.5,44.5C 467.957,45.2975 468.624,45.6309 469.5,45.5 Z"/></g>
<g><path style="opacity:1" fill="#1a6e3f" d="M 506.5,20.5 C 504.651,21.593 502.984,22.9263 501.5,24.5C 500.391,24.5569 499.391,24.8902 498.5,25.5C 500.124,22.3457 502.791,20.679 506.5,20.5 Z"/></g>
<g><path style="opacity:1" fill="#05e96d" d="M 508.5,19.5 C 509.552,19.3505 510.552,19.5172 511.5,20C 508.264,21.7862 504.93,23.2862 501.5,24.5C 502.984,22.9263 504.651,21.593 506.5,20.5C 506.842,19.6618 507.508,19.3284 508.5,19.5 Z"/></g>
<g><path style="opacity:1" fill="#0cdc69" d="M 346.5,65.5 C 346.062,65.5654 345.728,65.3988 345.5,65C 347.584,64.3028 349.251,63.1361 350.5,61.5C 354.173,59.6847 356.84,56.8514 358.5,53C 357.262,53.0773 356.262,52.9106 355.5,52.5C 358.833,48.8655 358.167,46.5322 353.5,45.5C 351.303,46.0656 349.136,46.7323 347,47.5C 342.054,43.0538 343.221,41.2205 350.5,42C 355.307,39.1167 358.807,35.2834 361,30.5C 360.189,31.9597 359.355,32.293 358.5,31.5C 359.752,29.9991 360.752,28.3325 361.5,26.5C 359.926,25.3691 358.259,25.2025 356.5,26C 352.9,28.0478 349.4,30.2145 346,32.5C 343.812,31.9407 343.146,30.6073 344,28.5C 348.693,24.4869 354.026,21.8202 360,20.5C 365.436,22.6862 366.77,26.3528 364,31.5C 360.597,35.114 357.097,38.614 353.5,42C 360.011,43.8823 362.178,48.0489 360,54.5C 356.816,59.8575 352.316,63.5241 346.5,65.5 Z"/></g>
<g><path style="opacity:1" fill="#139a50" d="M 508.5,19.5 C 509.568,18.5655 510.901,18.2322 512.5,18.5C 515.313,19.0818 517.98,20.0818 520.5,21.5C 512.627,21.2723 505.627,23.6056 499.5,28.5C 499.733,26.9382 500.4,25.6049 501.5,24.5C 504.93,23.2862 508.264,21.7862 511.5,20C 510.552,19.5172 509.552,19.3505 508.5,19.5 Z"/></g>
<g><path style="opacity:1" fill="#08e06a" d="M 525.5,36.5 C 525.027,35.0937 524.027,34.427 522.5,34.5C 524.637,31.8899 525.97,28.8899 526.5,25.5C 525.916,22.1996 523.916,20.8663 520.5,21.5C 517.98,20.0818 515.313,19.0818 512.5,18.5C 519.283,16.0453 524.783,17.7119 529,23.5C 531.361,28.7798 530.194,33.1131 525.5,36.5 Z"/></g>
<g><path style="opacity:1" fill="#06e96d" d="M 397.5,65.5 C 399.725,59.0434 401.058,52.3767 401.5,45.5C 402.008,41.8026 402.674,38.1359 403.5,34.5C 405.714,34.2907 407.381,35.124 408.5,37C 407.399,40.136 406.399,43.3027 405.5,46.5C 405.543,47.4164 405.876,48.0831 406.5,48.5C 417.342,46.9218 425.675,41.5885 431.5,32.5C 432.156,30.516 432.822,28.516 433.5,26.5C 433.167,25.8333 432.833,25.1667 432.5,24.5C 416.303,22.7639 403.303,28.4306 393.5,41.5C 391.616,40.3073 391.116,38.6406 392,36.5C 400.079,26.5406 410.579,20.874 423.5,19.5C 435.176,20.3149 438.676,25.9816 434,36.5C 430.133,40.8459 425.633,44.3459 420.5,47C 429.452,49.7109 431.452,54.8776 426.5,62.5C 418.668,68.2345 410.501,68.9012 402,64.5C 400.916,66.7823 399.416,67.1157 397.5,65.5 Z"/></g>
<g><path style="opacity:1" fill="#1c653c" d="M 498.5,25.5 C 495.872,27.4884 493.205,29.4884 490.5,31.5C 491.973,28.6458 494.14,26.3125 497,24.5C 497.383,25.056 497.883,25.3893 498.5,25.5 Z"/></g>
<g><path style="opacity:1" fill="#04ee6f" d="M 501.5,24.5 C 500.4,25.6049 499.733,26.9382 499.5,28.5C 493.605,31.7149 489.605,36.3816 487.5,42.5C 484.856,41.259 484.023,39.259 485,36.5C 486.704,34.6266 488.537,32.9599 490.5,31.5C 493.205,29.4884 495.872,27.4884 498.5,25.5C 499.391,24.8902 500.391,24.5569 501.5,24.5 Z"/></g>
<g><path style="opacity:1" fill="#1aa354" d="M 303.5,49.5 C 306.764,42.6238 310.764,36.2905 315.5,30.5C 316.458,30.0472 317.292,29.3805 318,28.5C 313.493,35.8229 309.16,43.4895 305,51.5C 304.722,50.5842 304.222,49.9175 303.5,49.5 Z"/></g>
<g><path style="opacity:1" fill="#12a353" d="M 522.5,34.5 C 524.027,34.427 525.027,35.0937 525.5,36.5C 524.457,39.0562 522.79,41.2228 520.5,43C 517.621,45.3852 514.621,47.5518 511.5,49.5C 511.5,48.8333 511.5,48.1667 511.5,47.5C 514.455,44.8844 517.455,42.2177 520.5,39.5C 520.137,38.8165 519.804,38.1499 519.5,37.5C 520.167,36.1667 521.167,35.1667 522.5,34.5 Z"/></g>
<g><path style="opacity:1" fill="#1c7e46" d="M 431.5,32.5 C 425.675,41.5885 417.342,46.9218 406.5,48.5C 415.645,44.428 423.978,39.0946 431.5,32.5 Z"/></g>
<g><path style="opacity:1" fill="#13944e" d="M 475.5,42.5 C 474.618,44.3838 473.118,45.7171 471,46.5C 470.617,45.944 470.117,45.6107 469.5,45.5C 471.25,44.1302 473.25,43.1302 475.5,42.5 Z"/></g>
<g><path style="opacity:1" fill="#06e96e" d="M 500.5,49.5 C 500.5,50.5 500.5,51.5 500.5,52.5C 504.501,51.6678 508.168,50.0012 511.5,47.5C 511.5,48.1667 511.5,48.8333 511.5,49.5C 508.649,51.5048 505.649,53.3382 502.5,55C 507.057,61.8728 513.224,64.3728 521,62.5C 521.617,63.4491 521.451,64.2825 520.5,65C 515.013,67.1848 509.68,66.8515 504.5,64C 502,61.5 499.5,59 497,56.5C 495.191,61.3549 493.691,66.3549 492.5,71.5C 491.522,71.0233 490.689,70.3567 490,69.5C 489.503,67.1902 489.337,64.8568 489.5,62.5C 490.268,63.2625 490.768,64.2625 491,65.5C 491.834,62.8276 492.668,60.161 493.5,57.5C 493.03,56.537 492.363,56.537 491.5,57.5C 491.366,55.7085 491.699,54.0418 492.5,52.5C 493.825,53.9526 494.658,53.6192 495,51.5C 496.392,49.0594 496.559,46.726 495.5,44.5C 495.848,40.2592 497.015,36.2592 499,32.5C 501.476,30.9372 502.976,31.6038 503.5,34.5C 502.263,38.7108 500.93,42.8774 499.5,47C 499.528,48.0698 499.861,48.9032 500.5,49.5 Z"/></g>
<g><path style="opacity:1" fill="#215d39" d="M 519.5,37.5 C 519.804,38.1499 520.137,38.8165 520.5,39.5C 517.455,42.2177 514.455,44.8844 511.5,47.5C 508.168,50.0012 504.501,51.6678 500.5,52.5C 500.5,51.5 500.5,50.5 500.5,49.5C 501.423,50.3029 502.423,50.4696 503.5,50C 509.407,46.549 514.741,42.3823 519.5,37.5 Z"/></g>
<g><path style="opacity:1" fill="#09de6a" d="M 437.5,64.5 C 440.415,62.6829 443.415,62.0162 446.5,62.5C 450.478,60.5216 453.478,57.5216 455.5,53.5C 454.5,53.5 453.5,53.5 452.5,53.5C 453.946,51.3821 454.613,49.0488 454.5,46.5C 450.894,46.2108 447.394,46.5442 444,47.5C 442.916,46.3349 442.083,45.0016 441.5,43.5C 449.504,42.3458 455.504,38.1792 459.5,31C 458.262,31.0773 457.262,30.9106 456.5,30.5C 457.752,28.9991 458.752,27.3325 459.5,25.5C 458.635,24.4173 457.635,24.2506 456.5,25C 451.84,26.9947 447.506,29.4947 443.5,32.5C 442.167,31.8333 441.167,30.8333 440.5,29.5C 445.495,25.1697 451.162,22.1697 457.5,20.5C 463.661,23.1508 464.827,27.1508 461,32.5C 457.833,35.6667 454.667,38.8333 451.5,42C 457.682,44.8504 459.516,49.3504 457,55.5C 453.419,59.7523 449.252,63.2523 444.5,66C 441.788,66.8258 439.455,66.3258 437.5,64.5 Z"/></g>
<g><path style="opacity:1" fill="#242825" d="M 423.5,58.5 C 421.036,60.3988 418.369,61.7321 415.5,62.5C 411.19,63.0802 406.857,63.4135 402.5,63.5C 402.035,59.2076 402.868,55.2076 405,51.5C 407.498,52.5982 409.998,52.4316 412.5,51C 416.5,50.3333 420.5,50.3333 424.5,51C 427.029,53.7563 426.695,56.2563 423.5,58.5 Z"/></g>
<g><path style="opacity:1" fill="#10ac57" d="M 495.5,44.5 C 496.559,46.726 496.392,49.0594 495,51.5C 494.658,53.6192 493.825,53.9526 492.5,52.5C 493.129,49.6027 494.129,46.936 495.5,44.5 Z"/></g>
<g><path style="opacity:1" fill="#178046" d="M 401.5,45.5 C 401.058,52.3767 399.725,59.0434 397.5,65.5C 397.397,58.6793 398.731,52.0127 401.5,45.5 Z"/></g>
<g><path style="opacity:1" fill="#05e86d" d="M 331.5,57.5 C 331.062,57.5654 330.728,57.3988 330.5,57C 331.551,55.6152 332.884,54.6152 334.5,54C 333.584,53.7216 332.918,53.2216 332.5,52.5C 334.481,50.8564 336.481,49.1897 338.5,47.5C 339.672,47.9186 340.672,48.5853 341.5,49.5C 338.51,52.6534 335.177,55.32 331.5,57.5 Z"/></g>
<g><path style="opacity:1" fill="#0fbb5c" d="M 332.5,52.5 C 332.918,53.2216 333.584,53.7216 334.5,54C 332.884,54.6152 331.551,55.6152 330.5,57C 330.728,57.3988 331.062,57.5654 331.5,57.5C 329.909,59.6326 327.909,61.2993 325.5,62.5C 325.631,61.7611 325.464,61.0944 325,60.5C 323.494,62.0653 321.994,62.3986 320.5,61.5C 324.462,58.5116 328.462,55.5116 332.5,52.5 Z"/></g>
<g><path style="opacity:1" fill="#159c51" d="M 423.5,58.5 C 424.598,59.397 424.598,60.2303 423.5,61C 421.008,63.1125 418.342,63.6125 415.5,62.5C 418.369,61.7321 421.036,60.3988 423.5,58.5 Z"/></g>
<g><path style="opacity:1" fill="#08e86d" d="M 367.5,60.5 C 373.8,61.2065 380.133,61.7065 386.5,62C 387.257,63.5122 388.257,64.8455 389.5,66C 381.531,67.2648 373.531,67.5981 365.5,67C 362.585,63.6722 363.251,61.5055 367.5,60.5 Z"/></g>
<g><path style="opacity:1" fill="#14964f" d="M 446.5,62.5 C 443.415,62.0162 440.415,62.6829 437.5,64.5C 436.596,63.791 436.263,62.791 436.5,61.5C 438.696,61.41 440.863,61.0767 443,60.5C 444.699,60.3866 445.866,61.0532 446.5,62.5 Z"/></g>
<g><path style="opacity:1" fill="#11ac57" d="M 489.5,62.5 C 489.796,60.597 490.463,58.9303 491.5,57.5C 492.363,56.537 493.03,56.537 493.5,57.5C 492.668,60.161 491.834,62.8276 491,65.5C 490.768,64.2625 490.268,63.2625 489.5,62.5 Z"/></g>
<g><path style="opacity:1" fill="#12ae57" d="M 350.5,61.5 C 349.251,63.1361 347.584,64.3028 345.5,65C 345.728,65.3988 346.062,65.5654 346.5,65.5C 341.783,67.294 339.283,65.6273 339,60.5C 342.793,60.527 346.626,60.8603 350.5,61.5 Z"/></g>
<g><path style="opacity:1" fill="#e8eae8" d="M 75.5,12.5 C 86.9102,12.0666 98.2436,12.5666 109.5,14C 115.5,19.6667 121.5,25.3333 127.5,31C 132.594,32.026 137.094,34.1927 141,37.5C 141.333,59.1667 141.667,80.8333 142,102.5C 145.156,112.945 146.49,123.612 146,134.5C 144.274,138.953 142.274,143.286 140,147.5C 126.2,157.561 110.7,161.395 93.5,159C 90.8333,158.667 88.1667,158.333 85.5,158C 77.7682,152.502 69.7682,152.168 61.5,157C 46.1658,159.765 32.3325,156.598 20,147.5C 13.7905,140.337 11.1239,132.004 12,122.5C 14.2519,108.919 17.4186,95.5858 21.5,82.5C 20.4713,76.719 18.9713,71.0523 17,65.5C 15.9201,56.6741 16.5867,48.0074 19,39.5C 26.3078,27.3294 37.1412,22.4961 51.5,25C 54.9895,22.0887 58.6562,19.422 62.5,17C 66.9797,15.5638 71.313,14.0638 75.5,12.5 Z"/></g>
<g><path style="opacity:1" fill="#666765" d="M 130.5,147.5 C 129.251,149.136 127.584,150.303 125.5,151C 114.871,155.093 103.871,156.426 92.5,155C 88.1402,154.162 84.1402,152.662 80.5,150.5C 97.5547,155.281 114.221,154.281 130.5,147.5 Z"/></g>
<g><path style="opacity:1" fill="#555654" d="M 20.5,135.5 C 21.803,137.142 23.1363,138.809 24.5,140.5C 28.453,145.153 33.453,148.32 39.5,150C 51.0169,152.216 62.3502,151.883 73.5,149C 57.8008,155.294 42.4675,154.294 27.5,146C 23.7639,143.341 21.4306,139.841 20.5,135.5 Z"/></g>
<g><path style="opacity:1" fill="#4d4d4b" d="M 75.5,145.5 C 75.8333,145.5 76.1667,145.5 76.5,145.5C 77.8333,147.167 79.1667,148.833 80.5,150.5C 77.8333,149.833 76.1667,148.167 75.5,145.5 Z"/></g>
<g><path style="opacity:1" fill="#3f4140" d="M 137.5,140.5 C 136.167,143.833 133.833,146.167 130.5,147.5C 132.5,144.833 134.833,142.5 137.5,140.5 Z"/></g>
<g><path style="opacity:1" fill="#f7f7f5" d="M 100.5,19.5 C 102.374,20.2852 104.374,20.9518 106.5,21.5C 113.059,25.0587 119.059,29.3921 124.5,34.5C 127.355,36.2501 130.689,37.0835 134.5,37C 135.056,37.3826 135.389,37.8826 135.5,38.5C 135.752,41.3198 135.252,43.9865 134,46.5C 131.577,47.785 129.744,49.6183 128.5,52C 129.068,55.2507 129.902,58.4174 131,61.5C 131.333,74.8333 131.667,88.1667 132,101.5C 135.14,111.955 136.474,122.622 136,133.5C 134.815,135.377 133.815,137.377 133,139.5C 126.033,144.639 118.2,147.805 109.5,149C 98.1986,150.328 87.1986,149.161 76.5,145.5C 76.1667,145.5 75.8333,145.5 75.5,145.5C 74.8698,143.25 73.8698,141.25 72.5,139.5C 72.8541,141.541 72.8541,143.374 72.5,145C 56.0874,149.69 40.5874,147.857 26,139.5C 25.6174,140.056 25.1174,140.389 24.5,140.5C 23.1363,138.809 21.803,137.142 20.5,135.5C 19.2032,126.505 19.2032,117.505 20.5,108.5C 23.7627,100.143 26.4293,91.4759 28.5,82.5C 26.3691,76.2717 24.5358,69.9383 23,63.5C 22.0055,54.1513 24.0055,45.4847 29,37.5C 31.6278,34.7895 34.4611,32.4562 37.5,30.5C 43.1658,29.3396 48.8325,29.1729 54.5,30C 67.9978,18.692 83.3312,15.192 100.5,19.5 Z"/></g>
<g><path style="opacity:1" fill="#c0bfbd" d="M 71.5,119.5 C 73.0443,119.703 74.3777,120.37 75.5,121.5C 76.451,120.674 77.451,120.508 78.5,121C 73.2841,125.304 73.6174,126.97 79.5,126C 78.1667,127 76.8333,128 75.5,129C 77.5313,129.632 79.198,130.799 80.5,132.5C 77.9208,132.915 76.0874,134.248 75,136.5C 74.6667,136.167 74.3333,135.833 74,135.5C 72.8118,136.563 72.3118,137.897 72.5,139.5C 69.8943,133.934 70.561,128.6 74.5,123.5C 73.4756,122.148 72.4756,120.815 71.5,119.5 Z"/></g>
<g><path style="opacity:1" fill="#9d9b9a" d="M 90.5,113.5 C 97.3452,113.042 104.012,113.542 110.5,115C 101.505,113.756 92.6721,114.589 84,117.5C 83.5,117.333 83,117.167 82.5,117C 85.1579,115.522 87.8245,114.355 90.5,113.5 Z"/></g>
<g><path style="opacity:1" fill="#9e9d9b" d="M 71.5,119.5 C 68.2983,117.822 64.965,116.322 61.5,115C 54.769,113.605 48.1024,113.105 41.5,113.5C 49.59,111.274 57.59,111.774 65.5,115C 68.1064,115.792 70.1064,117.292 71.5,119.5 Z"/></g>
<g><path style="opacity:1" fill="#656564" d="M 20.5,108.5 C 19.2032,117.505 19.2032,126.505 20.5,135.5C 18.9328,134.319 18.0995,132.653 18,130.5C 17.2699,123.452 17.6032,116.452 19,109.5C 19.3826,108.944 19.8826,108.611 20.5,108.5 Z"/></g>
<g><path style="opacity:1" fill="#d2ddd9" d="M 135.5,38.5 C 138.549,43.3981 137.549,47.5648 132.5,51C 133.917,53.9831 134.75,57.1498 135,60.5C 135.124,82.321 136.957,103.988 140.5,125.5C 140.536,130.721 139.536,135.721 137.5,140.5C 134.833,142.5 132.5,144.833 130.5,147.5C 114.221,154.281 97.5547,155.281 80.5,150.5C 79.1667,148.833 77.8333,147.167 76.5,145.5C 87.1986,149.161 98.1986,150.328 109.5,149C 118.2,147.805 126.033,144.639 133,139.5C 133.815,137.377 134.815,135.377 136,133.5C 136.474,122.622 135.14,111.955 132,101.5C 131.667,88.1667 131.333,74.8333 131,61.5C 129.902,58.4174 129.068,55.2507 128.5,52C 129.744,49.6183 131.577,47.785 134,46.5C 135.252,43.9865 135.752,41.3198 135.5,38.5 Z"/></g>
<g><path style="opacity:1" fill="#555554" d="M 37.5,30.5 C 34.4611,32.4562 31.6278,34.7895 29,37.5C 24.0055,45.4847 22.0055,54.1513 23,63.5C 24.5358,69.9383 26.3691,76.2717 28.5,82.5C 26.4293,91.4759 23.7627,100.143 20.5,108.5C 22.1165,99.4828 24.4498,90.6494 27.5,82C 21.6339,70.3786 20.1339,58.2119 23,45.5C 25.3537,37.9813 30.187,32.9813 37.5,30.5 Z"/></g>
<g><path style="opacity:1" fill="#4e4f4d" d="M 124.5,34.5 C 138.597,34.1945 141.93,40.0278 134.5,52C 135,53.5 135.5,55 136,56.5C 136.454,70.5103 137.12,84.5103 138,98.5C 141.15,110.656 142.15,122.989 141,135.5C 140.303,137.584 139.136,139.251 137.5,140.5C 139.536,135.721 140.536,130.721 140.5,125.5C 136.957,103.988 135.124,82.321 135,60.5C 134.75,57.1498 133.917,53.9831 132.5,51C 137.549,47.5648 138.549,43.3981 135.5,38.5C 135.389,37.8826 135.056,37.3826 134.5,37C 130.689,37.0835 127.355,36.2501 124.5,34.5 Z"/></g>
<g><path style="opacity:1" fill="#9b7d7e" d="M 58.5,67.5 C 64.0001,66.8314 66.1667,69.1647 65,74.5C 64.3109,75.3567 63.4776,76.0233 62.5,76.5C 55.8665,72.8939 48.8665,71.2272 41.5,71.5C 45.1555,70.3124 48.8222,70.3124 52.5,71.5C 55.217,71.1481 57.217,69.8147 58.5,67.5 Z"/></g>
<g><path style="opacity:1" fill="#181716" d="M 86.5,44.5 C 89.2973,45.3548 89.964,47.0215 88.5,49.5C 87.3112,50.4287 85.9778,50.762 84.5,50.5C 84.2587,48.1137 84.9254,46.1137 86.5,44.5 Z"/></g>
<g><path style="opacity:1" fill="#101010" d="M 47.5,35.5 C 54.2335,35.6167 59.7335,38.2834 64,43.5C 64.9415,46.23 63.9415,47.5633 61,47.5C 55.8022,46.735 51.4689,44.4017 48,40.5C 47.5065,38.8659 47.3398,37.1992 47.5,35.5 Z"/></g>
<g><path style="opacity:1" fill="#1f1f1f" d="M 59.5,29.5 C 60.5,29.5 61.5,29.5 62.5,29.5C 62.6602,31.1992 62.4935,32.8659 62,34.5C 59.8333,36 58.3333,35.5 57.5,33C 57.9783,31.6974 58.645,30.5307 59.5,29.5 Z"/></g>
<g><path style="opacity:1" fill="#575756" d="M 124.5,34.5 C 119.059,29.3921 113.059,25.0587 106.5,21.5C 108.752,20.0427 108.419,18.5427 105.5,17C 106.167,16.3333 106.833,16.3333 107.5,17C 112.646,22.4771 118.146,27.6438 124,32.5C 124.464,33.0944 124.631,33.7611 124.5,34.5 Z"/></g>
<g><path style="opacity:1" fill="#504f4e" d="M 100.5,19.5 C 83.3312,15.192 67.9978,18.692 54.5,30C 48.8325,29.1729 43.1658,29.3396 37.5,30.5C 39.8476,29.0483 42.5143,28.3817 45.5,28.5C 48.2093,28.873 50.8759,29.0397 53.5,29C 67.2832,17.7585 83.1166,13.2585 101,15.5C 102.167,15.6667 103.333,15.8333 104.5,16C 102.744,16.2022 101.078,16.7022 99.5,17.5C 100.025,18.1924 100.692,18.6924 101.5,19C 101.272,19.3988 100.938,19.5654 100.5,19.5 Z"/></g>
<g><path style="opacity:1" fill="#10a353" d="M 26.5,466.5 C 90.1702,466.167 153.837,466.5 217.5,467.5C 185.667,467.833 153.833,468.167 122,468.5C 89.8263,468.5 57.9929,467.833 26.5,466.5 Z"/></g>
<g><path style="opacity:1" fill="#03fe76" d="M -0.5,680.5 C 179.5,680.5 359.5,680.5 539.5,680.5C 539.5,706.5 539.5,732.5 539.5,758.5C 359.667,759.5 179.667,759.833 -0.5,759.5C -0.5,733.167 -0.5,706.833 -0.5,680.5 Z"/></g>
<g><path style="opacity:1" fill="#242424" d="M 539.5,680.5 C 719.5,680.5 899.5,680.5 1079.5,680.5C 1079.5,706.5 1079.5,732.5 1079.5,758.5C 899.5,758.5 719.5,758.5 539.5,758.5C 539.5,732.5 539.5,706.5 539.5,680.5 Z"/></g>
<g><path style="opacity:1" fill="#177241" d="M 924.5,693.5 C 925.492,693.328 926.158,693.662 926.5,694.5C 924.833,694.5 923.167,694.5 921.5,694.5C 921.082,693.778 920.416,693.278 919.5,693C 921.265,692.36 922.932,692.527 924.5,693.5 Z"/></g>
<g><path style="opacity:1" fill="#04f070" d="M 702.5,694.5 C 707.068,694.083 708.568,696.083 707,700.5C 701.793,712.787 697.793,725.454 695,738.5C 693.933,740.283 692.433,740.783 690.5,740C 691.165,728.836 693.832,718.002 698.5,707.5C 698.333,707.167 698.167,706.833 698,706.5C 695.976,710.119 693.809,710.286 691.5,707C 695.78,703.236 699.446,699.07 702.5,694.5 Z"/></g>
<g><path style="opacity:1" fill="#06eb6e" d="M 889.5,710.5 C 885.033,718.922 881.866,727.922 880,737.5C 879.55,740.106 878.05,741.439 875.5,741.5C 876.37,734.745 877.703,728.078 879.5,721.5C 879.167,721.167 878.833,720.833 878.5,720.5C 875.83,722.116 872.996,723.449 870,724.5C 868.739,724.241 867.739,723.574 867,722.5C 869.85,712.13 874.35,702.464 880.5,693.5C 883.144,694.741 883.977,696.741 883,699.5C 879.627,705.748 876.127,711.915 872.5,718C 875.863,717.993 878.863,716.827 881.5,714.5C 883.677,707.775 886.51,701.441 890,695.5C 891.621,695.725 892.788,696.558 893.5,698C 891.66,702.02 890.326,706.187 889.5,710.5 Z"/></g>
<g><path style="opacity:1" fill="#0cdc69" d="M 849.5,738.5 C 849.062,738.565 848.728,738.399 848.5,738C 850.584,737.303 852.251,736.136 853.5,734.5C 857.173,732.685 859.84,729.851 861.5,726C 860.262,726.077 859.262,725.911 858.5,725.5C 861.833,721.866 861.167,719.532 856.5,718.5C 854.303,719.066 852.136,719.732 850,720.5C 848.48,719.303 847.313,717.803 846.5,716C 851.309,716.417 855.309,714.917 858.5,711.5C 860.149,709.35 861.982,707.35 864,705.5C 864.281,703.095 863.615,703.095 862,705.5C 862.419,703.497 863.253,701.497 864.5,699.5C 862.926,698.369 861.259,698.202 859.5,699C 855.9,701.048 852.4,703.214 849,705.5C 846.812,704.941 846.146,703.607 847,701.5C 851.693,697.487 857.026,694.82 863,693.5C 868.436,695.686 869.77,699.353 867,704.5C 863.597,708.114 860.097,711.614 856.5,715C 863.011,716.882 865.178,721.049 863,727.5C 859.816,732.857 855.316,736.524 849.5,738.5 Z"/></g>
<g><path style="opacity:1" fill="#12ae58" d="M 927.5,691.5 C 925.821,691.285 924.821,691.952 924.5,693.5C 922.932,692.527 921.265,692.36 919.5,693C 920.416,693.278 921.082,693.778 921.5,694.5C 915.757,695.524 910.424,697.524 905.5,700.5C 904.262,700.19 904.262,699.69 905.5,699C 907.332,698.252 908.999,697.252 910.5,696C 909.552,695.517 908.552,695.351 907.5,695.5C 913.62,691.006 920.287,689.672 927.5,691.5 Z"/></g>
<g><path style="opacity:1" fill="#05ec6f" d="M 927.5,691.5 C 936.017,695.068 937.683,700.734 932.5,708.5C 931.167,707.833 930.167,706.833 929.5,705.5C 931.527,702.794 932.36,699.794 932,696.5C 930.416,695.139 928.582,694.472 926.5,694.5C 926.158,693.662 925.492,693.328 924.5,693.5C 924.821,691.952 925.821,691.285 927.5,691.5 Z"/></g>
<g><path style="opacity:1" fill="#05ea6e" d="M 807.5,736.5 C 806.596,737.209 806.263,738.209 806.5,739.5C 805.209,739.737 804.209,739.404 803.5,738.5C 804.75,732.665 806.084,726.831 807.5,721C 807.43,720.235 807.097,719.735 806.5,719.5C 807.172,715.812 808.005,712.145 809,708.5C 811.8,706.882 813.3,707.715 813.5,711C 812.383,713.731 811.717,716.565 811.5,719.5C 810.957,719.56 810.624,719.893 810.5,720.5C 814.351,721.749 818.018,721.249 821.5,719C 826.893,716.274 831.726,712.774 836,708.5C 836.483,707.552 836.649,706.552 836.5,705.5C 838.472,702.821 838.805,699.988 837.5,697C 821.386,695.641 808.553,701.474 799,714.5C 796.945,713.328 796.278,711.661 797,709.5C 806.96,698.101 819.46,692.601 834.5,693C 842.455,697.771 843.622,703.938 838,711.5C 834.434,714.699 830.6,717.533 826.5,720C 836.376,724.001 837.709,729.667 830.5,737C 824.512,740.151 818.179,741.151 811.5,740C 809.676,739.34 808.343,738.173 807.5,736.5 Z"/></g>
<g><path style="opacity:1" fill="#07e56c" d="M 907.5,695.5 C 908.552,695.351 909.552,695.517 910.5,696C 908.999,697.252 907.332,698.252 905.5,699C 904.262,699.69 904.262,700.19 905.5,700.5C 900.199,704.297 896.199,709.131 893.5,715C 890.969,714.872 889.635,713.372 889.5,710.5C 891.962,707.536 894.629,704.703 897.5,702C 901.377,700.568 904.711,698.402 907.5,695.5 Z"/></g>
<g><path style="opacity:1" fill="#1b904c" d="M 836.5,705.5 C 836.649,706.552 836.483,707.552 836,708.5C 831.726,712.774 826.893,716.274 821.5,719C 818.018,721.249 814.351,721.749 810.5,720.5C 810.624,719.893 810.957,719.56 811.5,719.5C 811.735,720.097 812.235,720.43 813,720.5C 821.851,716.84 829.684,711.84 836.5,705.5 Z"/></g>
<g><path style="opacity:1" fill="#20613b" d="M 909.5,725.5 C 908.508,725.672 907.842,725.338 907.5,724.5C 913.762,720.246 919.762,715.58 925.5,710.5C 926.794,709.71 927.961,708.71 929,707.5C 928.107,710.436 926.274,712.936 923.5,715C 918.944,718.764 914.277,722.264 909.5,725.5 Z"/></g>
<g><path style="opacity:1" fill="#19a555" d="M 723.5,699.5 C 725.028,699.517 725.528,700.184 725,701.5C 717.332,711.183 711.332,721.849 707,733.5C 706.722,732.584 706.222,731.918 705.5,731.5C 709.473,719.568 715.473,708.901 723.5,699.5 Z"/></g>
<g><path style="opacity:1" fill="#0eb95c" d="M 929.5,705.5 C 930.167,706.833 931.167,707.833 932.5,708.5C 925.794,716.016 918.128,722.35 909.5,727.5C 909.5,726.833 909.5,726.167 909.5,725.5C 914.277,722.264 918.944,718.764 923.5,715C 926.274,712.936 928.107,710.436 929,707.5C 927.961,708.71 926.794,709.71 925.5,710.5C 926.08,708.251 927.413,706.585 929.5,705.5 Z"/></g>
<g><path style="opacity:1" fill="#08e46c" d="M 907.5,724.5 C 907.842,725.338 908.508,725.672 909.5,725.5C 909.5,726.167 909.5,726.833 909.5,727.5C 908.475,727.897 908.308,728.563 909,729.5C 913.886,735.71 920.053,738.043 927.5,736.5C 923.608,739.326 919.275,740.159 914.5,739C 909.973,736.904 905.973,734.071 902.5,730.5C 899.909,734.79 898.909,739.457 899.5,744.5C 895.996,744.208 894.329,742.208 894.5,738.5C 896.549,729.637 899.215,720.97 902.5,712.5C 902.129,709.237 903.463,706.571 906.5,704.5C 907.833,705.167 908.833,706.167 909.5,707.5C 907.528,712.056 905.861,716.722 904.5,721.5C 905.188,722.855 906.188,723.855 907.5,724.5 Z"/></g>
<g><path style="opacity:1" fill="#09de6a" d="M 745.5,737.5 C 748.415,735.683 751.415,735.016 754.5,735.5C 758.478,733.522 761.478,730.522 763.5,726.5C 762.5,726.5 761.5,726.5 760.5,726.5C 761.946,724.382 762.613,722.049 762.5,719.5C 758.894,719.211 755.394,719.544 752,720.5C 750.916,719.335 750.083,718.002 749.5,716.5C 757.504,715.346 763.504,711.179 767.5,704C 766.262,704.077 765.262,703.911 764.5,703.5C 765.752,701.999 766.752,700.332 767.5,698.5C 766.635,697.417 765.635,697.251 764.5,698C 759.84,699.995 755.506,702.495 751.5,705.5C 750.167,704.833 749.167,703.833 748.5,702.5C 753.495,698.17 759.162,695.17 765.5,693.5C 771.661,696.151 772.827,700.151 769,705.5C 765.833,708.667 762.667,711.833 759.5,715C 765.682,717.85 767.516,722.35 765,728.5C 761.419,732.752 757.252,736.252 752.5,739C 749.788,739.826 747.455,739.326 745.5,737.5 Z"/></g>
<g><path style="opacity:1" fill="#242825" d="M 830.5,730.5 C 827.594,732.45 824.594,734.117 821.5,735.5C 816.848,735.998 812.181,736.331 807.5,736.5C 808.01,732.116 808.843,727.782 810,723.5C 812.243,725.787 814.743,725.953 817.5,724C 821.5,723.333 825.5,723.333 829.5,724C 833.1,725.641 833.434,727.807 830.5,730.5 Z"/></g>
<g><path style="opacity:1" fill="#168849" d="M 806.5,719.5 C 807.097,719.735 807.43,720.235 807.5,721C 806.084,726.831 804.75,732.665 803.5,738.5C 802.993,732.124 803.993,725.791 806.5,719.5 Z"/></g>
<g><path style="opacity:1" fill="#14a052" d="M 830.5,730.5 C 829.176,733.987 826.676,736.321 823,737.5C 822.722,736.584 822.222,735.918 821.5,735.5C 824.594,734.117 827.594,732.45 830.5,730.5 Z"/></g>
<g><path style="opacity:1" fill="#14964f" d="M 754.5,735.5 C 751.415,735.016 748.415,735.683 745.5,737.5C 744.596,736.791 744.263,735.791 744.5,734.5C 746.696,734.41 748.863,734.077 751,733.5C 752.699,733.387 753.866,734.053 754.5,735.5 Z"/></g>
<g><path style="opacity:1" fill="#07e86d" d="M 773.5,733.5 C 779.452,734.248 785.452,734.748 791.5,735C 793.032,735.7 794.032,736.866 794.5,738.5C 786.565,740.496 778.565,740.829 770.5,739.5C 769.691,737.929 769.357,736.262 769.5,734.5C 771.099,734.768 772.432,734.434 773.5,733.5 Z"/></g>
<g><path style="opacity:1" fill="#08e16a" d="M 705.5,731.5 C 706.222,731.918 706.722,732.584 707,733.5C 711.332,721.849 717.332,711.183 725,701.5C 725.528,700.184 725.028,699.517 723.5,699.5C 725.002,697.825 726.335,695.992 727.5,694C 732.626,691.147 735.96,692.48 737.5,698C 736.725,700.822 736.058,703.656 735.5,706.5C 734.5,706.5 733.5,706.5 732.5,706.5C 733.192,703.103 733.192,699.77 732.5,696.5C 722.508,706.464 715.008,718.131 710,731.5C 709.333,733.5 709.333,735.5 710,737.5C 713.174,738.728 716.341,738.561 719.5,737C 728.782,732.875 737.116,727.375 744.5,720.5C 745.5,720.833 746.167,721.5 746.5,722.5C 737.969,731.934 727.636,738.6 715.5,742.5C 708.959,741.63 705.625,737.963 705.5,731.5 Z"/></g>
<g><path style="opacity:1" fill="#12ae57" d="M 853.5,734.5 C 852.251,736.136 850.584,737.303 848.5,738C 848.728,738.399 849.062,738.565 849.5,738.5C 844.783,740.294 842.283,738.627 842,733.5C 845.793,733.527 849.626,733.86 853.5,734.5 Z"/></g>
<g><path style="opacity:1" fill="#fefefe" d="M 539.5,758.5 C 719.5,758.5 899.5,758.5 1079.5,758.5C 1079.5,865.5 1079.5,972.5 1079.5,1079.5C 719.5,1079.5 359.5,1079.5 -0.5,1079.5C -0.5,972.833 -0.5,866.167 -0.5,759.5C 179.667,759.833 359.667,759.5 539.5,758.5 Z"/></g>
</svg>
